M48
; DRILL file {KiCad 9.0.4} date 2025-08-31T02:43:21-0700
; FORMAT={-:-/ absolute / metric / decimal}
; #@! TF.CreationDate,2025-08-31T02:43:21-07:00
; #@! TF.GenerationSoftware,Kicad,Pcbnew,9.0.4
; #@! TF.FileFunction,Plated,1,2,PTH
FMAT,2
METRIC
; #@! TA.AperFunction,Plated,PTH,ViaDrill
T1C0.300
; #@! TA.AperFunction,Plated,PTH,ComponentDrill
T2C0.750
; #@! TA.AperFunction,Plated,PTH,ComponentDrill
T3C0.800
; #@! TA.AperFunction,Plated,PTH,ComponentDrill
T4C0.889
; #@! TA.AperFunction,Plated,PTH,ComponentDrill
T5C0.900
; #@! TA.AperFunction,Plated,PTH,ComponentDrill
T6C0.950
; #@! TA.AperFunction,Plated,PTH,ComponentDrill
T7C1.000
; #@! TA.AperFunction,Plated,PTH,ComponentDrill
T8C1.100
; #@! TA.AperFunction,Plated,PTH,ComponentDrill
T9C1.300
; #@! TA.AperFunction,Plated,PTH,ComponentDrill
T10C1.397
%
G90
G05
T1
X97.0Y-102.1
X98.1Y-103.2
X98.2Y-101.1
X120.0Y-124.8
X121.4Y-124.8
X121.4Y-126.2
X152.2Y-120.6
X152.6Y-124.6
X153.6Y-120.6
X153.6Y-125.6
X154.6Y-124.6
X155.0Y-120.6
X168.5Y-84.5
X189.0Y-84.6
X190.6Y-84.6
X192.2Y-84.6
X193.4Y-79.8
X193.4Y-81.0
X193.8Y-84.6
X194.6Y-79.8
X194.6Y-81.0
X198.994Y-103.8
X200.0Y-88.4
X200.0Y-89.8
X201.0Y-80.8
X201.0Y-82.2
X201.6Y-88.4
X201.6Y-89.8
T2
X98.23Y-80.191
X99.5Y-80.191
X100.77Y-80.191
X196.23Y-80.191
X197.5Y-80.191
X198.77Y-80.191
T3
X105.328Y-102.012
X112.948Y-102.012
X115.456Y-108.264
X123.076Y-108.264
X123.266Y-118.954
X123.266Y-126.574
X127.6Y-73.8
X133.765Y-95.325
X133.766Y-100.454
X133.766Y-108.074
X133.956Y-118.764
X135.22Y-73.8
X141.385Y-95.325
X141.576Y-118.764
X144.69Y-83.8
X144.69Y-106.25
X152.31Y-83.8
X152.31Y-106.25
X155.615Y-95.325
X161.78Y-73.8
X163.235Y-95.325
X164.655Y-98.805
X169.4Y-73.8
X172.1Y-85.231
X172.1Y-92.851
X172.2Y-82.4
X172.275Y-98.805
X179.82Y-82.4
X184.04Y-104.791
X191.66Y-104.791
X194.6Y-95.19
X194.6Y-102.81
T4
X106.638Y-80.032
X109.138Y-80.032
X111.638Y-80.032
X117.868Y-86.262
X117.868Y-88.762
X117.868Y-91.262
X159.735Y-109.555
X159.735Y-112.055
X159.735Y-114.555
X165.965Y-120.785
X168.465Y-120.785
X170.965Y-120.785
T5
X105.888Y-94.512
X105.888Y-99.012
X112.388Y-94.512
X112.388Y-99.012
X165.215Y-101.805
X165.215Y-106.305
X171.715Y-101.805
X171.715Y-106.305
T6
X149.5Y-74.229
X152.0Y-74.229
X154.5Y-74.229
X157.0Y-74.229
T7
X118.754Y-69.994
X123.246Y-70.245
X134.28Y-79.639
X136.82Y-79.639
X139.36Y-79.639
X141.9Y-79.639
X143.42Y-127.899
X144.44Y-79.639
X145.96Y-127.899
X146.98Y-79.639
X148.5Y-127.899
X149.52Y-79.639
X151.04Y-127.899
X152.06Y-79.639
X153.58Y-127.899
X154.6Y-79.639
X156.12Y-127.899
X157.14Y-79.639
X158.66Y-127.899
X161.2Y-79.639
X161.2Y-127.899
X163.74Y-79.639
X166.28Y-79.639
X166.28Y-127.899
X168.82Y-79.639
X168.82Y-127.899
X171.36Y-79.639
X171.36Y-127.899
X173.754Y-70.245
X173.9Y-79.639
X173.9Y-127.899
X176.44Y-79.639
X176.44Y-127.899
X178.246Y-69.994
X178.98Y-79.639
X178.98Y-127.899
T8
X116.016Y-111.264
X116.016Y-115.764
X122.516Y-111.264
X122.516Y-115.764
X126.266Y-101.014
X126.266Y-107.514
X126.266Y-119.514
X126.266Y-126.014
X130.766Y-101.014
X130.766Y-107.514
X130.766Y-119.514
X130.766Y-126.014
X134.325Y-87.825
X134.325Y-92.325
X134.516Y-111.264
X134.516Y-115.764
X140.825Y-87.825
X140.825Y-92.325
X141.016Y-111.264
X141.016Y-115.764
X145.25Y-98.75
X145.25Y-103.25
X146.25Y-86.825
X146.25Y-93.325
X150.75Y-86.825
X150.75Y-93.325
X151.75Y-98.75
X151.75Y-103.25
X156.175Y-87.825
X156.175Y-92.325
X162.675Y-87.825
X162.675Y-92.325
X175.1Y-85.791
X175.1Y-92.291
X179.6Y-85.791
X179.6Y-92.291
X184.6Y-76.291
X184.6Y-80.791
X184.6Y-97.291
X184.6Y-101.791
X191.1Y-76.291
X191.1Y-80.791
X191.1Y-97.291
X191.1Y-101.791
X196.1Y-85.791
X196.1Y-92.291
X200.6Y-85.791
X200.6Y-92.291
T9
X117.366Y-72.421
X124.355Y-72.811
X172.645Y-72.811
X179.634Y-72.421
T10
X102.813Y-83.762
X102.813Y-93.762
X115.463Y-83.762
X115.463Y-93.762
X162.14Y-107.055
X162.14Y-117.055
X174.79Y-107.055
X174.79Y-117.055
M30
