%TF.GenerationSoftware,KiCad,Pcbnew,9.0.4*%
%TF.CreationDate,2025-08-31T02:43:20-07:00*%
%TF.ProjectId,controller,636f6e74-726f-46c6-9c65-722e6b696361,rev?*%
%TF.SameCoordinates,Original*%
%TF.FileFunction,Profile,NP*%
%FSLAX46Y46*%
G04 Gerber Fmt 4.6, Leading zero omitted, Abs format (unit mm)*
G04 Created by KiCad (PCBNEW 9.0.4) date 2025-08-31 02:43:20*
%MOMM*%
%LPD*%
G01*
G04 APERTURE LIST*
%TA.AperFunction,Profile*%
%ADD10C,0.200000*%
%TD*%
G04 APERTURE END LIST*
D10*
X180672914Y-129006513D02*
G75*
G02*
X179972482Y-129299469I-707314J707313D01*
G01*
X191600400Y-74791008D02*
X183672800Y-74791008D01*
X192600394Y-76043688D02*
X192600394Y-75791000D01*
X193396475Y-77022677D02*
G75*
G02*
X192600409Y-76043688I203925J978977D01*
G01*
X202954084Y-95688132D02*
G75*
G02*
X202954061Y-90480306I4268316J2603932D01*
G01*
X93339409Y-100128791D02*
X122219754Y-129009136D01*
X202954084Y-95688132D02*
G75*
G02*
X203100373Y-96208913I-853784J-520768D01*
G01*
X94045916Y-90480320D02*
G75*
G02*
X93330593Y-96602079I-4268506J-2603900D01*
G01*
X180672914Y-129006513D02*
X202811070Y-106868357D01*
X118371356Y-67820341D02*
G75*
G02*
X119206501Y-67362631I840244J-542359D01*
G01*
X113393365Y-74983413D02*
X94695674Y-78878218D01*
X202304326Y-78878218D02*
X193396475Y-77022677D01*
X93899606Y-79857200D02*
G75*
G02*
X94695674Y-78878220I999994J0D01*
G01*
X182830745Y-74330405D02*
X178628629Y-67820317D01*
X203100394Y-106164800D02*
G75*
G02*
X202811091Y-106868378I-1000194J0D01*
G01*
X203100394Y-106164800D02*
X203100394Y-96208913D01*
X191600400Y-74791008D02*
G75*
G02*
X192600392Y-75791000I0J-999992D01*
G01*
X122924300Y-129299427D02*
X179972482Y-129299427D01*
X183672800Y-74791008D02*
G75*
G02*
X182830744Y-74330405I0J1000008D01*
G01*
X143223800Y-67362631D02*
G75*
G02*
X144103200Y-67886472I0J-1000069D01*
G01*
X93339409Y-100128791D02*
G75*
G02*
X93330588Y-96602074I1767791J1767791D01*
G01*
X202304326Y-78878218D02*
G75*
G02*
X203100396Y-79857200I-203926J-978982D01*
G01*
X152896811Y-67886478D02*
G75*
G02*
X153776100Y-67362627I879289J-476022D01*
G01*
X93899606Y-79857200D02*
X93899606Y-89964498D01*
X152896811Y-67886478D02*
G75*
G02*
X144103189Y-67886478I-4396811J2380767D01*
G01*
X177788500Y-67362631D02*
X153776100Y-67362631D01*
X114029599Y-74546765D02*
G75*
G02*
X113393364Y-74983406I-840099J542265D01*
G01*
X203100394Y-89959500D02*
X203100394Y-79857200D01*
X94045916Y-90480320D02*
G75*
G02*
X93899583Y-89964498I853584J520820D01*
G01*
X122924300Y-129299427D02*
G75*
G02*
X122219733Y-129009157I0J1000227D01*
G01*
X118371356Y-67820341D02*
X114029599Y-74546765D01*
X143223800Y-67362631D02*
X119206501Y-67362631D01*
X177788500Y-67362631D02*
G75*
G02*
X178628612Y-67820328I0J-999869D01*
G01*
X203100394Y-89959500D02*
G75*
G02*
X202954104Y-90480332I-1000294J0D01*
G01*
M02*
